C:/Users/tisgot23adioka/OneDrive - Thorengruppen/Skrivbordet/Krita (x64)/bin/ffmpeg.exe -hide_banner -y -y -r 50 -start_number 0 -start_number_range 1 -i C:/Users/tisgot23adioka/OneDrive - Thorengruppen/Kurser/Programering 1/Runner Game/runframe%04d.png -i C:/Users/tisgot23adioka/OneDrive - Thorengruppen/Kurser/Programering 1/Runner Game/KritaTempPalettegen_%06d.png -lavfi [0:v][1:v]paletteuse=dither=sierra2_4a:diff_mode=none -f gif -loop 0 -gifflags +transdiff C:/Users/tisgot23adioka/OneDrive - Thorengruppen/Kurser/Programering 1/Runner Game/jump animation coloured with smear.gif
=====================================================
Input #0, image2, from 'C:/Users/tisgot23adioka/OneDrive - Thorengruppen/Kurser/Programering 1/Runner Game/runframe%04d.png':
  Duration: 00:00:00.60, start: 0.000000, bitrate: N/A
  Stream #0:0: Video: png, rgba(pc), 1920x1920 [SAR 11813:11813 DAR 1:1], 25 fps, 25 tbr, 25 tbn, 25 tbc
Input #1, image2, from 'C:/Users/tisgot23adioka/OneDrive - Thorengruppen/Kurser/Programering 1/Runner Game/KritaTempPalettegen_%06d.png':
  Duration: 00:00:00.04, start: 0.000000, bitrate: N/A
  Stream #1:0: Video: png, rgba(pc), 16x16 [SAR 1:1 DAR 1:1], 25 fps, 25 tbr, 25 tbn, 25 tbc
Stream mapping:
  Stream #0:0 (png) -> paletteuse:default
  Stream #1:0 (png) -> paletteuse:palette
  paletteuse -> Stream #0:0 (gif)
Press [q] to stop, [?] for help
[image2 @ 00000202b4f8a140] Thread message queue blocking; consider raising the thread_queue_size option (current value: 8)
Output #0, gif, to 'C:/Users/tisgot23adioka/OneDrive - Thorengruppen/Kurser/Programering 1/Runner Game/jump animation coloured with smear.gif':
  Metadata:
    encoder         : Lavf58.76.100
  Stream #0:0: Video: gif, pal8(pc, gbr/unknown/unknown, progressive), 1920x1920 [SAR 1:1 DAR 1:1], q=2-31, 200 kb/s, 50 fps, 100 tbn (default)
    Metadata:
      encoder         : Lavc58.134.100 gif
frame=    1 fps=0.0 q=-0.0 size=       0kB time=00:00:00.01 bitrate=   0.0kbits/s speed=0.0599x    frame=    4 fps=0.0 q=-0.0 size=     256kB time=00:00:00.07 bitrate=29959.3kbits/s speed=0.0862x    frame=    9 fps=6.7 q=-0.0 size=     512kB time=00:00:00.17 bitrate=24672.4kbits/s speed=0.126x    frame=   15 fps=8.1 q=-0.0 size=    1024kB time=00:00:00.29 bitrate=28926.2kbits/s speed=0.157x    frame=   15 fps=7.8 q=-0.0 Lsize=    1319kB time=00:00:00.29 bitrate=37270.2kbits/s speed=0.151x    
video:1319kB audio:0kB subtitle:0kB other streams:0kB global headers:0kB muxing overhead: 0.001480%
